<?xml version="1.0" standalone="no"?>
<!DOCTYPE svg PUBLIC "-//W3C//DTD SVG 20010904//EN"
 "http://www.w3.org/TR/2001/REC-SVG-20010904/DTD/svg10.dtd">
<svg version="1.0" xmlns="http://www.w3.org/2000/svg"
 width="500.000000pt" height="500.000000pt" viewBox="0 0 500.000000 500.000000"
 preserveAspectRatio="xMidYMid meet">

<g transform="translate(0.000000,500.000000) scale(0.100000,-0.100000)"
fill="#000000" stroke="none">
<path d="M0 1885 l0 -1885 1118 0 1119 0 1063 1863 c585 1024 1070 1872 1078
1885 l14 22 -2196 0 -2196 0 0 -1885z m1174 1249 c9 -3 16 -11 16 -17 0 -7 -4
-7 -12 1 -16 16 -28 15 -28 -3 0 -8 4 -15 9 -15 5 0 17 -7 26 -16 12 -12 13
-19 4 -30 -17 -21 -59 -18 -58 4 0 10 3 12 6 5 5 -14 43 -18 43 -6 0 4 -12 17
-27 29 -24 19 -26 24 -14 38 15 18 14 18 35 10z m160 -3 c3 -4 -6 -6 -19 -3
-23 4 -25 2 -25 -38 0 -40 2 -42 25 -38 14 3 25 1 25 -3 0 -5 -15 -9 -32 -9
-33 0 -33 0 -33 50 0 48 1 50 27 50 15 0 29 -4 32 -9z m120 3 c9 -3 16 -11 16
-17 0 -7 -4 -7 -12 1 -16 16 -28 15 -28 -3 0 -8 4 -15 9 -15 5 0 17 -7 26 -16
12 -12 13 -19 4 -30 -17 -21 -59 -18 -58 4 0 10 3 12 6 5 5 -14 43 -18 43 -6
0 4 -12 17 -27 29 -24 19 -26 24 -14 38 15 18 14 18 35 10z m174 -10 c26 -18
28 -46 6 -68 -22 -23 -60 -20 -78 6 -20 29 -20 34 4 58 24 24 38 25 68 4z
m146 10 c18 -7 22 -40 6 -46 -6 -2 -2 -13 10 -26 13 -14 16 -22 8 -22 -7 0
-19 9 -26 20 -7 11 -17 20 -22 20 -14 0 -12 -27 3 -33 6 -3 3 -6 -8 -6 -17 -1
-20 5 -20 49 0 52 9 59 49 44z m211 -44 c0 -27 -4 -50 -10 -50 -5 0 -10 23
-10 50 0 28 5 50 10 50 6 0 10 -22 10 -50z m128 18 l28 -33 -4 33 c-2 18 1 32
7 32 7 0 10 -19 7 -51 l-3 -52 -39 44 c-21 24 -38 47 -39 52 0 16 16 6 43 -25z
m164 -5 l15 -38 19 38 c11 20 23 37 27 37 4 0 7 -22 7 -50 0 -28 -5 -50 -10
-50 -7 0 -10 16 -8 38 l4 37 -22 -39 -21 -39 -19 39 -19 39 3 -37 c2 -22 -2
-38 -8 -38 -5 0 -10 22 -10 50 0 61 19 67 42 13z m233 17 c24 -24 24 -29 4
-58 -27 -39 -94 -19 -94 28 0 20 35 50 57 50 7 0 22 -9 33 -20z m139 11 c8 -5
11 -16 8 -24 -3 -8 -1 -19 5 -25 19 -19 1 -42 -34 -42 l-33 0 3 50 c4 51 17
62 51 41z m126 -41 c0 -38 -4 -50 -15 -50 -11 0 -15 12 -15 50 0 38 4 50 15
50 11 0 15 -12 15 -50z m105 4 c0 -44 1 -46 25 -42 14 3 25 1 25 -3 0 -5 -17
-9 -37 -9 l-38 0 0 50 c0 33 4 50 13 50 8 0 12 -16 12 -46z m145 -4 c0 -27 -4
-50 -10 -50 -5 0 -10 23 -10 50 0 28 4 50 10 50 5 0 10 -22 10 -50z m295 35
c10 -12 10 -18 -1 -31 -11 -14 -10 -19 10 -35 18 -14 19 -19 7 -19 -9 0 -21 9
-28 20 -7 11 -17 20 -22 20 -4 0 -6 -9 -3 -20 3 -11 0 -20 -6 -20 -8 0 -12 19
-12 50 0 44 2 50 21 50 12 0 27 -7 34 -15z m115 -35 c0 -27 -4 -50 -10 -50 -5
0 -10 23 -10 50 0 28 5 50 10 50 6 0 10 -22 10 -50z m165 30 c24 -24 24 -29 4
-58 -27 -39 -94 -19 -94 28 0 20 35 50 57 50 7 0 22 -9 33 -20z m-2558 -35
c15 -38 15 -45 3 -45 -8 0 -14 6 -12 12 1 7 -8 14 -20 16 -13 2 -23 5 -23 7 0
10 24 55 29 55 4 0 14 -20 23 -45z m2126 -2 c16 -34 17 -43 6 -43 -8 0 -14 7
-14 15 0 8 -9 15 -20 15 -11 0 -20 -7 -20 -15 0 -8 -4 -15 -9 -15 -8 0 9 55
26 83 6 11 7 10 31 -40z m-1848 7 c0 -5 -4 -10 -10 -10 -5 0 -10 5 -10 10 0 6
5 10 10 10 6 0 10 -4 10 -10z m-325 -40 c3 -5 -1 -10 -10 -10 -9 0 -13 5 -10
10 3 6 8 10 10 10 2 0 7 -4 10 -10z m1095 0 c0 -5 -5 -10 -11 -10 -5 0 -7 5
-4 10 3 6 8 10 11 10 2 0 4 -4 4 -10z m-324 -342 c-34 -132 -98 -439 -93 -452
4 -9 18 -16 32 -16 16 0 25 -6 25 -15 0 -12 -18 -15 -101 -15 -76 0 -100 3
-97 13 3 6 14 13 26 15 11 2 25 9 30 15 9 10 42 123 42 141 0 3 -33 6 -73 6
l-73 0 -58 -66 c-59 -69 -64 -87 -27 -92 12 -2 20 -9 18 -15 -5 -15 -177 -22
-177 -8 0 5 21 19 46 31 37 18 82 66 237 251 168 200 196 229 221 229 25 0 28
-3 22 -22z m1404 2 c47 -16 56 -17 63 -4 4 8 15 14 23 14 15 0 15 -7 -5 -109
-9 -48 -25 -49 -39 -3 -16 52 -42 73 -97 79 -95 11 -186 -55 -221 -161 -23
-67 -23 -181 0 -223 55 -107 236 -67 236 51 0 27 -23 56 -45 56 -9 0 -12 6 -9
15 5 12 25 15 95 15 72 0 89 -3 89 -15 0 -8 -6 -15 -14 -15 -26 0 -43 -28 -61
-99 l-17 -71 -50 -15 c-169 -50 -278 -11 -314 112 -52 178 101 386 286 392 14
0 50 -8 80 -19z m-936 -152 c29 -265 12 -261 155 -34 l124 196 68 0 c55 0 69
-3 69 -15 0 -8 -8 -15 -18 -15 -34 0 -50 -34 -97 -209 -52 -197 -54 -234 -12
-239 15 -2 27 -9 27 -18 0 -11 -21 -14 -110 -14 -93 0 -109 2 -104 15 4 8 14
15 24 15 9 0 25 9 34 19 17 19 112 349 103 358 -3 2 -62 -89 -133 -202 -88
-142 -133 -205 -143 -203 -13 3 -21 45 -41 218 -28 245 -19 246 -85 -9 -32
-124 -33 -137 -20 -158 9 -13 22 -23 31 -23 9 0 14 -6 12 -12 -3 -9 -34 -14
-96 -16 -99 -3 -117 7 -58 32 19 8 40 24 46 36 20 37 101 353 98 380 -2 19
-10 26 -30 28 -16 2 -28 9 -28 18 0 11 18 14 83 14 l83 0 18 -162z m-482 -730
c41 -34 19 -88 -35 -88 -32 0 -32 0 -32 50 0 47 2 50 26 50 14 0 32 -6 41 -12z
m162 3 c3 -4 -6 -6 -19 -3 -23 4 -25 2 -25 -38 0 -40 2 -42 25 -38 14 3 25 1
25 -3 0 -5 -15 -9 -32 -9 -33 0 -33 0 -33 50 0 48 1 50 27 50 15 0 29 -4 32
-9z m236 0 c0 -5 -9 -7 -20 -4 -18 5 -20 0 -20 -37 0 -40 2 -42 25 -38 14 3
25 1 25 -3 0 -5 -17 -9 -37 -9 l-38 0 3 50 c4 48 5 50 33 50 16 0 29 -4 29 -9z
m118 2 c-13 -3 -18 -15 -18 -44 0 -32 3 -39 20 -39 26 0 40 28 29 58 -8 22 -8
23 6 12 18 -15 20 -51 3 -68 -7 -7 -26 -12 -42 -12 -30 0 -31 1 -31 50 0 47 2
50 25 49 17 -1 19 -3 8 -6z m192 -2 c0 -5 -9 -7 -20 -4 -18 5 -20 0 -20 -37 0
-40 2 -42 25 -38 14 3 25 1 25 -3 0 -5 -17 -9 -37 -9 l-38 0 0 50 c0 50 0 50
33 50 17 0 32 -4 32 -9z m130 -31 c17 -22 30 -45 28 -51 -2 -6 -16 7 -32 28
l-28 38 4 -37 c2 -22 0 -38 -7 -38 -5 0 -10 22 -10 50 0 28 3 50 7 50 3 0 21
-18 38 -40z m40 30 c0 -5 -4 -10 -10 -10 -5 0 -10 5 -10 10 0 6 5 10 10 10 6
0 10 -4 10 -10z m130 -5 c11 -13 9 -21 -10 -47 -18 -24 -19 -30 -7 -25 10 4
17 2 17 -3 0 -6 -11 -10 -25 -10 -30 0 -32 11 -5 35 24 22 26 55 4 55 -11 0
-15 -6 -11 -20 3 -11 1 -20 -4 -20 -10 0 -12 33 -2 43 11 12 30 8 43 -8z m144
6 c3 -4 -6 -6 -19 -3 -23 4 -25 2 -25 -38 0 -40 2 -42 25 -38 14 3 25 1 25 -3
0 -5 -15 -9 -32 -9 -33 0 -33 0 -33 50 0 48 1 50 27 50 15 0 29 -4 32 -9z
m-1004 -41 c0 -5 -4 -10 -10 -10 -5 0 -10 5 -10 10 0 6 5 10 10 10 6 0 10 -4
10 -10z m240 0 c0 -5 -4 -10 -10 -10 -5 0 -10 5 -10 10 0 6 5 10 10 10 6 0 10
-4 10 -10z m750 0 c0 -5 -4 -10 -10 -10 -5 0 -10 5 -10 10 0 6 5 10 10 10 6 0
10 -4 10 -10z"/>
<path d="M1570 3115 c-7 -9 -10 -25 -6 -41 5 -20 12 -25 34 -22 19 2 28 9 30
26 6 43 -33 68 -58 37z"/>
<path d="M1740 3110 c0 -11 7 -20 15 -20 8 0 15 9 15 20 0 11 -7 20 -15 20 -8
0 -15 -9 -15 -20z"/>
<path d="M2450 3116 c-20 -26 -8 -61 22 -64 22 -3 29 2 34 22 11 44 -29 74
-56 42z"/>
<path d="M2620 3091 c0 -29 4 -41 14 -41 18 0 28 14 18 25 -4 4 -7 16 -7 28 0
11 -6 22 -12 24 -9 3 -13 -8 -13 -36z"/>
<path d="M3280 3109 c0 -24 23 -21 28 4 2 10 -3 17 -12 17 -10 0 -16 -9 -16
-21z"/>
<path d="M3540 3116 c-20 -26 -8 -61 22 -64 22 -3 29 2 34 22 11 44 -29 74
-56 42z"/>
<path d="M1006 3095 c-3 -9 0 -15 9 -15 9 0 12 6 9 15 -4 8 -7 15 -9 15 -2 0
-5 -7 -9 -15z"/>
<path d="M3130 3090 c0 -5 5 -10 10 -10 6 0 10 5 10 10 0 6 -4 10 -10 10 -5 0
-10 -4 -10 -10z"/>
<path d="M1606 2540 c-42 -49 -76 -92 -76 -95 0 -3 25 -5 55 -5 30 0 55 2 55
4 0 3 11 45 24 95 14 50 23 91 22 91 -2 0 -38 -40 -80 -90z"/>
<path d="M1710 1790 c0 -33 3 -40 20 -40 24 0 38 44 20 65 -23 28 -40 18 -40
-25z"/>
</g>
</svg>
